<svg xmlns="http://www.w3.org/2000/svg" viewBox="0 0 296.74 298.94"><defs><style>.cls-1{fill:#fff;}.cls-2,.cls-3,.cls-4{fill:none;stroke-linejoin:round;stroke-width:3px;}.cls-14,.cls-2,.cls-3,.cls-4{stroke:#000;}.cls-3{stroke-dasharray:12.25 12.25;}.cls-4{stroke-dasharray:12.33 12.33;}.cls-5{font-size:53.44px;fill:#ef6f6c;font-family:KGDefyingGravityBounce, KG Defying Gravity Bounce;}.cls-6,.cls-9{fill:#a8a6de;}.cls-7{fill:#00916e;}.cls-8{fill:#93278f;letter-spacing:0em;}.cls-9{letter-spacing:0em;}.cls-10{fill:#d19500;}.cls-11{fill:#ffbf1f;}.cls-12{fill:#ed4c5c;}.cls-13{fill:#f2b200;}.cls-14{fill:#fbb03b;stroke-miterlimit:10;stroke-width:2px;}</style></defs><title>Recurso 4</title><g id="Capa_2" data-name="Capa 2"><g id="Capa_1-2" data-name="Capa 1"><rect class="cls-1" x="1.5" y="1.86" width="293.74" height="295.58"/><polyline class="cls-2" points="295.24 291.44 295.24 297.44 289.24 297.44"/><line class="cls-3" x1="276.99" y1="297.44" x2="13.62" y2="297.44"/><polyline class="cls-2" points="7.5 297.44 1.5 297.44 1.5 291.44"/><line class="cls-4" x1="1.5" y1="279.11" x2="1.5" y2="14.03"/><polyline class="cls-2" points="1.5 7.86 1.5 1.86 7.5 1.86"/><line class="cls-3" x1="19.75" y1="1.86" x2="283.11" y2="1.86"/><polyline class="cls-2" points="289.24 1.86 295.24 1.86 295.24 7.86"/><line class="cls-4" x1="295.24" y1="20.19" x2="295.24" y2="285.28"/><text class="cls-5" transform="translate(15.55 79.69) scale(1.31 1)"><tspan xml:space="preserve">  [P</tspan><tspan class="cls-6" x="68.83" y="0">aC</tspan><tspan class="cls-7" x="113.4" y="0">k]</tspan><tspan class="cls-8" x="159.37" y="0"> </tspan><tspan x="0" y="64.12">[Pr</tspan><tspan class="cls-9" x="68.26" y="64.12">EmI</tspan><tspan class="cls-7" x="135.1" y="64.12">uM]</tspan></text><path class="cls-10" d="M35.33,19.32a.82.82,0,0,1-.2-.12.86.86,0,0,1-.07-1.28c3.75-4.07,4.06-6.48,4.32-8.61a7.22,7.22,0,0,1,2.81-5.53,1,1,0,0,1,1.36,0,.88.88,0,0,1-.12,1.29,5.44,5.44,0,0,0-2.12,4.31c-.28,2.28-.64,5.12-4.81,9.65A1.05,1.05,0,0,1,35.33,19.32Z" transform="translate(-4.77 -2.56)"/><path class="cls-11" d="M34.62,18.87l-.11-.05a.87.87,0,0,1-.24-1.26c3.26-4.5,3.22-6.85,3.19-8.92a6.9,6.9,0,0,1,2.07-5.75,1,1,0,0,1,1.37-.12A.87.87,0,0,1,41,4.05,5.16,5.16,0,0,0,39.4,8.51c0,2.24.08,5-3.53,10A1,1,0,0,1,34.62,18.87Z" transform="translate(-4.77 -2.56)"/><path class="cls-12" d="M28.8,51.43,24.54,39.06,11.1,43.73,27,14.14a3.57,3.57,0,0,1,4.48-1.56l11.81,5.13a2.91,2.91,0,0,1,1.41,4.12Z" transform="translate(-4.77 -2.56)"/><path class="cls-1" d="M33.39,17.56a3.41,3.41,0,0,1,4.42,1.93,3.57,3.57,0,0,1-6.72,2.34A3.44,3.44,0,0,1,33.39,17.56Z" transform="translate(-4.77 -2.56)"/><path class="cls-13" d="M36.92,12.75a3.57,3.57,0,0,0-2.56.49c-1.16.84-1.83,2.34-2,4.44a.85.85,0,0,0,.52.86,1.43,1.43,0,0,0,.37.08,1,1,0,0,0,1-.89c.16-1.93.75-2.74,1.21-3.08.22-.16.34,0,.63-.06A11.7,11.7,0,0,0,36.92,12.75Z" transform="translate(-4.77 -2.56)"/><path class="cls-13" d="M41,16.12a2.83,2.83,0,0,0-.94-2s-.36.69-1,1.72a1.49,1.49,0,0,1,0,.36c0,.54-.35,1.45-1.93,2.76A.88.88,0,0,0,37,20.24a.69.69,0,0,0,.3.21,1,1,0,0,0,1.07-.16C40.08,18.86,41,17.46,41,16.12Z" transform="translate(-4.77 -2.56)"/><polygon class="cls-14" points="85.5 269.7 72.2 254.33 52.07 256.64 62.49 239.16 54.09 220.61 73.83 225.18 88.76 211.41 90.54 231.71 108.17 241.75 89.53 249.73 85.5 269.7"/><polygon class="cls-14" points="139 221.22 121.34 211.23 103.16 220.2 107.14 200.21 93.04 185.58 113.16 183.22 122.63 165.2 131.08 183.73 151.04 187.22 136.14 201.03 139 221.22"/><polygon class="cls-14" points="169.66 263.49 160.39 245.36 140.29 242.78 154.55 228.3 150.79 208.27 168.88 217.45 186.64 207.66 183.56 227.8 198.31 241.78 178.31 245.06 169.66 263.49"/><polygon class="cls-14" points="232.02 221.22 214.36 211.23 196.17 220.2 200.16 200.21 186.05 185.58 206.17 183.22 215.65 165.2 224.1 183.73 244.05 187.22 229.16 201.03 232.02 221.22"/></g></g></svg>