<svg xmlns="http://www.w3.org/2000/svg" viewBox="0 0 298.56 299.42"><defs><style>.cls-1{fill:#fff;}.cls-2,.cls-3,.cls-4{fill:none;stroke-linejoin:round;stroke-width:3px;}.cls-17,.cls-2,.cls-3,.cls-4{stroke:#000;}.cls-3{stroke-dasharray:12.33 12.33;}.cls-4{stroke-dasharray:12.37 12.37;}.cls-5{font-size:53.59px;fill:#ef6f6c;font-family:KGDefyingGravityBounce, KG Defying Gravity Bounce;}.cls-6{fill:#a8a6de;}.cls-7,.cls-9{fill:#00916e;}.cls-8{fill:#93278f;}.cls-9{letter-spacing:0em;}.cls-10{fill:#ffc200;}.cls-11{fill:#e68a00;}.cls-12{fill:#ffe394;}.cls-13{fill:#f3f7fa;}.cls-14{fill:#42ade2;}.cls-15{fill:#d3976e;}.cls-16{fill:#89664c;}.cls-17{fill:#fbb03b;stroke-miterlimit:10;stroke-width:2px;}</style></defs><title>Recurso 8</title><g id="Capa_2" data-name="Capa 2"><g id="Capa_1-2" data-name="Capa 1"><rect class="cls-1" x="1.5" y="1.5" width="295.56" height="296.42"/><polyline class="cls-2" points="297.06 291.92 297.06 297.92 291.06 297.92"/><line class="cls-3" x1="278.73" y1="297.92" x2="13.66" y2="297.92"/><polyline class="cls-2" points="7.5 297.92 1.5 297.92 1.5 291.92"/><line class="cls-4" x1="1.5" y1="279.55" x2="1.5" y2="13.68"/><polyline class="cls-2" points="1.5 7.5 1.5 1.5 7.5 1.5"/><line class="cls-3" x1="19.83" y1="1.5" x2="284.9" y2="1.5"/><polyline class="cls-2" points="291.06 1.5 297.06 1.5 297.06 7.5"/><line class="cls-4" x1="297.06" y1="19.87" x2="297.06" y2="285.73"/><text class="cls-5" transform="translate(27.46 79.55) scale(1.32 1)"><tspan xml:space="preserve">  [P</tspan><tspan class="cls-6" x="69.03" y="0">aC</tspan><tspan class="cls-7" x="113.72" y="0">k]</tspan><tspan class="cls-8" x="159.82" y="0"> </tspan><tspan x="0" y="64.31">[De</tspan><tspan class="cls-6" x="68.45" y="64.31">Lu</tspan><tspan class="cls-9" x="113.14" y="64.31">Xe]</tspan></text><path class="cls-10" d="M37.19,26.83a1.5,1.5,0,1,1-3,0h-.67a2.17,2.17,0,1,0,4.33,0Z" transform="translate(0 -2.09)"/><path class="cls-11" d="M36.46,31.21H34.92V28.06a.78.78,0,1,1,1.54,0Z" transform="translate(0 -2.09)"/><ellipse class="cls-11" cx="35.69" cy="38.07" rx="10.39" ry="10.75"/><ellipse class="cls-10" cx="35.69" cy="38.07" rx="9.62" ry="9.95"/><polygon class="cls-11" points="34.35 36.27 33.01 34.36 27.02 35.26 31.36 36.72 34.35 36.27"/><polygon class="cls-11" points="37.03 36.27 38.38 34.36 35.7 28.76 35.7 33.47 37.03 36.27"/><polygon class="cls-11" points="37.86 38.89 40.03 39.62 44.37 35.26 40.03 36.72 37.86 38.89"/><polygon class="cls-11" points="35.7 40.52 35.7 42.87 41.06 45.78 38.38 41.97 35.7 40.52"/><polygon class="cls-11" points="33.53 38.89 31.36 39.62 30.33 45.78 33.02 41.97 33.53 38.89"/><polygon class="cls-12" points="35.7 33.47 35.7 28.76 33.01 34.36 34.35 36.27 35.7 33.47"/><polygon class="cls-12" points="40.03 36.72 44.37 35.26 38.38 34.36 37.03 36.27 40.03 36.72"/><polygon class="cls-12" points="37.86 38.89 38.38 41.97 41.06 45.78 40.03 39.62 37.86 38.89"/><polygon class="cls-12" points="33.02 41.97 30.33 45.78 35.7 42.87 35.7 40.52 33.02 41.97"/><polygon class="cls-12" points="31.36 36.72 27.02 35.26 31.36 39.62 33.53 38.89 31.36 36.72"/><polygon class="cls-13" points="28 21.93 29.74 24.91 31.85 24.91 31.85 1.04 28 1.04 28 21.93"/><polygon class="cls-13" points="39.54 1.04 39.54 24.91 41.65 24.91 43.39 21.93 43.39 1.04 39.54 1.04"/><polygon class="cls-14" points="24.15 15.36 24.15 15.36 28 21.93 28 1.04 24.15 1.04 24.15 15.36"/><rect class="cls-14" x="31.85" y="1.04" width="7.7" height="23.88"/><polygon class="cls-14" points="43.39 1.04 43.39 21.93 47.24 15.36 47.24 15.36 47.24 1.04 43.39 1.04"/><rect class="cls-15" x="28.77" y="23.38" width="13.86" height="0.8"/><rect class="cls-16" x="28.77" y="24.18" width="13.86" height="0.8"/><polygon class="cls-17" points="72.23 267.13 58.84 251.72 38.59 254.04 49.08 236.51 40.62 217.91 60.48 222.49 75.51 208.67 77.3 229.04 95.05 239.1 76.29 247.1 72.23 267.13"/><polygon class="cls-17" points="126.06 218.51 108.3 208.49 89.99 217.49 94 197.45 79.81 182.77 100.06 180.41 109.59 162.34 118.09 180.91 138.18 184.42 123.19 198.27 126.06 218.51"/><polygon class="cls-17" points="156.91 260.9 147.58 242.73 127.36 240.13 141.71 225.62 137.92 205.53 156.13 214.73 174 204.91 170.9 225.12 185.74 239.13 165.62 242.42 156.91 260.9"/><polygon class="cls-17" points="219.66 218.51 201.89 208.49 183.59 217.49 187.6 197.45 173.41 182.77 193.66 180.41 203.19 162.34 211.69 180.91 231.77 184.42 216.78 198.27 219.66 218.51"/><polygon class="cls-17" points="248.54 265.84 239.21 247.67 218.99 245.07 233.34 230.56 229.55 210.47 247.75 219.67 265.63 209.85 262.53 230.06 277.36 244.07 257.25 247.36 248.54 265.84"/></g></g></svg>