<svg xmlns="http://www.w3.org/2000/svg" viewBox="0 0 304 304"><defs><style>.cls-1{font-size:72.44px;fill:#009245;}.cls-1,.cls-6{font-family:KGDefyingGravityBounce, KG Defying Gravity Bounce;}.cls-2{fill:#f15a24;}.cls-3{fill:#fff;}.cls-4,.cls-5{fill:none;stroke-linejoin:round;stroke-width:4px;}.cls-10,.cls-4,.cls-5{stroke:#000;}.cls-5{stroke-dasharray:11.52 11.52;}.cls-6{font-size:54.24px;fill:#ef6f6c;}.cls-7{fill:#a8a6de;}.cls-8{fill:#00916e;}.cls-9{fill:#93278f;}.cls-10{fill:#fbb03b;stroke-miterlimit:10;stroke-width:2px;}</style></defs><title>Recurso 1</title><g id="Capa_2" data-name="Capa 2"><g id="Capa_1-2" data-name="Capa 1"><text class="cls-1" transform="translate(82.42 80.82)"> <tspan class="cls-2" x="15.49" y="0"> </tspan></text><rect class="cls-3" x="2" y="2" width="300" height="300"/><polyline class="cls-4" points="302 296 302 302 296 302"/><line class="cls-5" x1="284.48" y1="302" x2="13.76" y2="302"/><polyline class="cls-4" points="8 302 2 302 2 296"/><line class="cls-5" x1="2" y1="284.48" x2="2" y2="13.76"/><polyline class="cls-4" points="2 8 2 2 8 2"/><line class="cls-5" x1="19.52" y1="2" x2="290.24" y2="2"/><polyline class="cls-4" points="296 2 302 2 302 8"/><line class="cls-5" x1="302" y1="19.52" x2="302" y2="290.24"/><text class="cls-6" transform="translate(21.35 85.99) scale(1.32 1)"><tspan xml:space="preserve">  [P</tspan><tspan class="cls-7" x="69.86" y="0">aC</tspan><tspan class="cls-8" x="115.09" y="0">k]</tspan><tspan class="cls-9" x="161.76" y="0"> </tspan><tspan x="0" y="65.08">[Ba</tspan><tspan class="cls-7" x="69.28" y="65.08">Si</tspan><tspan class="cls-8" x="114.51" y="65.08">Co]</tspan></text><polygon class="cls-10" points="93.29 261.35 79.71 245.74 59.15 248.09 69.79 230.35 61.21 211.52 81.37 216.16 96.62 202.18 98.44 222.79 116.45 232.97 97.41 241.07 93.29 261.35"/><polygon class="cls-10" points="167.93 242.13 149.9 232 131.32 241.1 135.39 220.82 120.99 205.97 141.54 203.57 151.21 185.28 159.84 204.08 180.23 207.63 165.01 221.65 167.93 242.13"/><polygon class="cls-10" points="216.25 260.04 206.77 241.64 186.25 239.02 200.82 224.33 196.97 204 215.45 213.31 233.59 203.37 230.44 223.82 245.5 238 225.09 241.33 216.25 260.04"/></g></g></svg>